
<svg version="1.0" xmlns="http://www.w3.org/2000/svg"
 class="two_squares" viewBox="0 0 128.000000 128.000000"
 preserveAspectRatio="xMidYMid meet">

<g transform="translate(0.000000,128.000000) scale(0.100000,-0.100000)"
   stroke="none">
<path d="M66 1259 l-26 -20 0 -444 0 -444 26 -20 c26 -20 37 -21 436 -21 l409
0 24 25 25 24 0 436 0 436 -25 24 -24 25 -409 0 c-399 0 -410 -1 -436 -21z"/>
<path d="M1020 920 l0 -50 45 0 c32 0 51 -6 65 -20 19 -19 20 -33 20 -365 0
-332 -1 -346 -20 -365 -19 -19 -33 -20 -350 -20 -317 0 -331 1 -350 20 -14 14
-20 33 -20 65 l0 45 -45 0 -45 0 0 -90 c0 -83 2 -93 25 -115 l24 -25 409 0
c399 0 410 1 436 21 l26 20 0 444 0 444 -26 20 c-22 17 -41 21 -110 21 l-84 0
0 -50z"/>
</g>
</svg>
