
<svg version="1.0" xmlns="http://www.w3.org/2000/svg"
 class="question" viewBox="0 0 128.000000 128.000000"
 preserveAspectRatio="xMidYMid meet">

<g transform="translate(0.000000,128.000000) scale(0.100000,-0.100000)"
   stroke="none">
<path d="M502 1265 c-34 -8 -95 -30 -135 -49 -342 -166 -468 -578 -275 -904
42 -72 148 -178 220 -220 31 -18 89 -45 130 -60 63 -22 89 -26 193 -27 97 0
133 4 190 22 98 31 189 87 265 163 75 76 121 148 158 252 23 64 26 88 26 198
0 110 -3 134 -26 198 -38 106 -83 177 -164 257 -151 151 -371 215 -582 170z
m263 -130 c382 -100 513 -576 235 -855 -279 -278 -755 -147 -855 235 -69 265
98 547 366 619 72 19 181 20 254 1z"/>
<path d="M578 951 c-65 -21 -128 -99 -128 -159 0 -20 5 -22 65 -22 50 0 65 3
65 14 0 41 73 62 105 30 29 -30 15 -75 -33 -107 -54 -36 -72 -72 -72 -142 l0
-55 60 0 60 0 0 39 c0 36 4 41 44 65 110 65 114 241 6 312 -42 28 -126 40
-172 25z"/>
<path d="M580 385 l0 -65 60 0 60 0 0 65 0 65 -60 0 -60 0 0 -65z"/>
</g>
</svg>
