<svg version="1.0" xmlns="http://www.w3.org/2000/svg"
 class="calendar" viewBox="0 0 128.000000 128.000000"
 preserveAspectRatio="xMidYMid meet">

<g transform="translate(0.000000,128.000000) scale(0.100000,-0.100000)"
 stroke="none">
<path d="M298 1189 c-11 -6 -18 -22 -18 -39 0 -29 -1 -30 -54 -30 -59 0 -111
-27 -133 -70 -7 -15 -13 -64 -13 -117 l0 -93 560 0 560 0 0 90 c0 63 -5 100
-15 121 -23 44 -71 69 -132 69 -52 0 -53 1 -53 30 0 19 -7 33 -20 40 -30 16
-60 -4 -60 -40 l0 -30 -280 0 -280 0 0 30 c0 19 -7 33 -19 40 -23 12 -22 12
-43 -1z m60 -140 c-2 -55 -7 -74 -20 -83 -13 -8 -23 -8 -36 0 -13 9 -18 28
-20 83 l-3 71 41 0 41 0 -3 -71z m640 0 c-2 -55 -7 -74 -20 -83 -13 -8 -23 -8
-35 0 -14 9 -19 28 -21 83 l-3 71 41 0 41 0 -3 -71z"/>
<path d="M80 469 c0 -319 3 -339 59 -372 26 -15 74 -17 501 -17 521 0 513 -1
544 64 14 29 16 76 16 325 l0 291 -560 0 -560 0 0 -291z"/>
</g>
</svg>
